Patient4_TMGait_0pt4_01_right_06_EMG.mot
version=1
nRows=20
nColumns=33
inDegrees=no
endheader
time	1LAddLong	2LGlutMax	3LGlutMed	4LIliopsoas	5LSemiMemb	6LBicFemLong	7LRecFem	8LVastMed	9LVastLat	10LGasMed	11LTibAnt	12lTibPost	13LPeroneusLong	14LSol	15LExtDigLong	16LFlexDigLong	17RAddLong	18RGlutMax	19RGlutMed	20RIliopsoas	21RSemiMemb	22RBicFemLong	23RRecFem	24RVastMed	25RVastLat	26RGasMed	27RTibAnt	28RTibPost	29RPeroneusLong	30RSol	31RExtDigLong	32RFlexDigLong
7.767	-0.008545	0.078583	0.053711	-0.007629	0.023041	-0.04425	-0.015717	0.011292	-0.069275	0.003967	-0.097961	-0.001221	-0.07782	0.019379	-0.38589	0.006409	-0.06424	-1.0687	-0.01297	-0.067902	0.13992	-0.4689	0.26855	0.13657	-0.037384	-0.18249	0.042267	0.14389	0.23743	-0.37949	-0.005035	-0.018921
7.768	-0.005035	0.029907	0.072174	-0.006866	0.007782	-0.045013	-0.019684	0.008698	-0.089264	-0.013123	0.019989	-0.004883	-0.014191	-0.093689	-0.64621	0.005646	-0.038757	-1.0213	0.62164	-0.023346	0.016479	-0.22934	0.34805	0.25803	-0.007019	-0.071411	0.029144	0.085449	0.44601	-0.54245	0.001068	-0.00946
7.769	-0.006256	-0.006104	0.06012	-0.007172	0.007477	-0.027771	-0.018921	0.011444	-0.08606	-0.061646	0.15106	0.000305	0.13443	-0.14435	-0.20798	0.006104	-0.03418	-0.96832	0.3479	0.00412	-0.19226	0.03952	0.34943	0.24658	0.008087	-0.034332	-0.000763	0.04364	0.17853	0.039215	-0.001526	-0.007019
7.77	-0.007019	0.019073	0.084381	-0.002899	0.003662	-0.049438	-0.009613	0.011597	-0.083618	0.008087	0.35919	-0.005646	-0.01236	-0.016479	-0.13947	0.003357	0.020142	-0.91629	-0.30487	0.066223	-0.27542	0.09552	0.34515	0.11581	-0.060883	0.31647	0.039368	-0.1181	-0.34531	0.93842	-0.000153	-0.002747
7.771	-0.008545	0.04425	0.069122	0.017548	0.003052	-0.037689	-0.025177	0.011597	-0.044708	0.10895	0.10284	-0.001221	-0.18845	-0.003662	-0.29511	-0.011597	0.039215	-0.88654	-0.99289	0.12314	-0.14191	-0.17227	0.18906	-0.022583	-0.054474	0.22263	0.007019	-0.031738	-0.38742	0.5835	0.002136	-0.00412
7.772	-0.007477	0.020752	0.052795	0.005798	0.01236	-0.053864	-0.010986	0.002747	-0.021973	0.029449	-0.053558	0.000458	-0.20752	-0.014801	-0.61523	-0.005493	0.014648	-0.79681	-0.50095	0.1062	0.14771	-0.19073	-0.26871	-0.18494	0.034332	0.077057	-0.045471	-0.059967	-0.19821	-0.035706	0.001526	-0.005341
7.773	-0.008087	-0.00473	0.06424	-0.001373	0.016022	-0.046387	-0.01358	0.006256	-0.014038	-0.049286	-0.19043	-0.005951	-0.12863	0.048065	0.66666	0.020599	-0.024414	-0.83176	-0.62943	0.061646	0.1741	-0.19165	-0.35584	-0.22537	0.1207	0.094147	-0.057678	-0.49164	-0.31357	-0.14923	-0.001373	-0.014954
7.774	-0.009155	-0.018463	0.066071	0.009003	0.004425	-0.049133	0.006714	0.007629	-0.004578	-0.046997	-0.1619	-0.000305	-0.11398	0.018005	-0.12177	0.006714	-0.066376	-0.63828	-0.67184	0.045929	0.044403	-0.15625	-0.16617	-0.088196	0.24811	0.10529	-0.068054	0.091095	0.38483	-0.65842	0.002136	-0.014038
7.775	-0.010223	-0.003204	0.055695	-0.002289	0.009308	-0.054016	-0.010681	0.006714	-0.012665	-0.044708	-0.19348	-0.002899	-0.057068	-0.067139	0.38727	-0.007324	-0.06073	-0.45273	-0.51148	-0.06134	-0.023804	-0.14374	-0.1651	-0.016174	0.58426	0.063324	-0.07309	0.22507	0.71091	-0.57358	-0.000153	-0.01236
7.776	-0.010834	0.037537	0.047455	0.038605	-0.000153	-0.071259	0.000153	0.001831	-0.015869	0.004272	0.03952	-0.007935	-0.05249	-0.12665	-0.16586	-0.002747	-0.016937	-0.32516	-1.089	-0.076752	-0.071869	-0.11688	-0.024872	-0.017242	0.62439	0.0383	-0.002289	0.072327	0.30182	-0.054626	0.00351	-0.018005
7.777	-0.007172	-0.007019	0.057526	0.029755	0.007019	-0.095825	-0.012512	0.005341	-0.010529	0.019684	-0.018616	-0.001678	-0.081482	-0.15289	0.021362	0.015259	-0.040131	-0.16617	-0.44022	-0.10361	0.12482	-0.033112	-0.033569	0.11749	0.62408	0.10452	-0.009766	0.10666	0.19211	0.15411	-0.001984	-0.011902
7.778	-0.014801	0.015411	0.046844	0.001831	0.021362	-0.023651	-0.011749	0.003357	0.011749	0.002747	-0.16449	-0.014191	-0.041046	-0.2214	0.020294	0.008698	-0.02594	-0.13153	0.47409	-0.038757	0.14679	-0.14343	0.036316	0.10819	0.54916	0.074005	-0.013428	0.3537	-0.15015	0.16373	-0.002289	-0.008545
7.779	-0.012207	0.024719	0.058746	-0.002441	0.026398	-0.027313	-0.002441	0.002747	0.013733	0.005035	-0.15549	0.002594	-0.078125	-0.19119	0.057373	0.007324	0.002899	-0.08667	0.83283	0.013275	0.1001	-0.2594	0.010986	0.032043	0.33997	0.080719	-0.034485	0.072327	-0.13702	0.15533	0.002747	-0.015106
7.78	-0.00473	0.019531	0.058899	-0.02121	0.018768	-0.010376	-0.009766	0.013275	-0.006561	-0.003967	-0.11871	-0.005341	-0.097656	-0.042572	-0.019989	0.002441	0.008087	-0.039368	0.62729	0.049438	0.10147	-0.22568	-0.13992	-0.073547	0.12116	0.028076	-0.030212	-0.065613	-0.024109	0.12756	0.001526	-0.016022
7.781	-0.013123	-0.00061	0.064087	-0.014496	0.008698	-0.037689	-0.005951	-0.051422	0.018005	-0.040283	-0.16007	-0.005188	-0.018921	-0.036316	0.52734	0.008087	-0.001831	-0.093536	0.028839	0.070496	0.052032	-0.094604	-0.17502	-0.039368	-0.26428	-0.001678	-0.037231	-0.009918	0.25818	0.2124	-0.002441	-0.001984
7.782	-0.010681	0.009308	0.06897	-0.00824	0.014648	-0.012817	0.023041	0.018768	0.014954	-0.064392	-0.21759	-0.000305	0.076599	-0.11993	0.15335	0.00473	0.036011	-0.18326	-0.48798	0.064087	0.032043	0.020447	0.018158	-0.094147	-0.83847	-0.024109	-0.057983	-0.007172	0.29678	-0.11932	0.002441	-0.001678
7.783	-0.011292	0.018768	0.080261	-0.008698	0.018311	-0.029449	0.034637	0.000458	0.02594	-0.047455	0.093231	-0.005798	-0.097809	-0.10269	0.78445	0.000458	0.046082	-0.18005	-0.63049	0.060272	0.13519	-0.092468	0.14008	-0.086212	-0.95871	0.031891	-0.018005	-0.054626	0.25116	-0.62241	0.000153	-0.00473
7.784	-0.00885	0.001984	0.084686	0.000763	0.017242	-0.040131	0.027008	0.001068	0.03891	0.029907	0.070648	-0.007629	-0.21698	-0.079803	0.72372	0.008545	0.072632	-0.21255	-0.21637	0.026245	-0.065308	-0.16815	0.14938	-0.12863	-0.45273	0.069275	-0.005341	0.008392	-0.027008	-0.63583	0.000458	-0.007629
7.785	-0.005646	0.016937	0.09491	0.019989	0.015106	-0.052032	0.044403	-0.001221	0.059204	-0.009613	-0.18585	0.000153	-0.13657	-0.019226	-0.61996	-0.002747	0.061646	-0.028076	0.062866	0.014191	-0.13245	-0.22583	0.086365	0.11398	0.020752	0.017853	0.002594	0.066376	-0.22903	-0.26489	-0.000916	-0.007629
7.786	-0.004272	0.009613	0.11398	0	0.021057	-0.047455	0.059814	0.004578	0.065155	-0.038605	-0.27176	-0.006561	-0.044098	0.019379	-0.38391	-0.010529	0.008545	0.055695	0.19821	-0.043335	-0.43945	-0.034637	0.020752	0.25787	0.14038	-0.035706	-0.005341	0.013733	-0.23758	0.46295	-0.003815	-0.011292
